# xmcd
#
# Track frame offsets: 
#        150
#        20249
#        41466
#        56853
#        75056
#
# Disc length: 1273 seconds
#
# Revision: 0
# Processed by: cddbd v1.5.2PL0 Copyright (c) Steve Scherf et al.
# Submitted via: ExactAudioCopyFreeDBPlugin 1.0
#
DISCID=3404f705
DTITLE=Tim La Londe - All Along
DYEAR=2008
DGENRE=Country and Folk
TTITLE0=Loc'd Out Blues
TTITLE1=All Along
TTITLE2=Occupied
TTITLE3=West Coast Yankee
TTITLE4=Little Bit of Hope
EXTD=
EXTT0=
EXTT1=
EXTT2=
EXTT3=
EXTT4=
PLAYORDER=
